<?xml version="1.0" encoding="iso-8859-1"?>
<!-- Generator: Adobe Illustrator 19.0.0, SVG Export Plug-In . SVG Version: 6.00 Build 0)  -->
<svg version="1.1" id="Capa_1" xmlns="http://www.w3.org/2000/svg" xmlns:xlink="http://www.w3.org/1999/xlink" x="0px" y="0px"
	 viewBox="0 0 512 512" style="enable-background:new 0 0 512 512;" xml:space="preserve">
<g>
	<g>
		<path style="fill:#0cbf0c;" d="M256,0L34.298,128v256L256,512l221.702-128V128L256,0z M432.701,136.661l-67.86,39.179l-67.86-117.537L432.701,136.661z
			 M333.37,181.33H178.63L256,47.321L333.37,181.33z M215.019,58.302l-67.86,117.537l-67.86-39.179L215.019,58.302z M64.298,162.642
			l67.86,39.179l-67.86,117.537V162.642z M152.625,226.373l77.06,133.967H75.278L152.625,226.373z M241,468.699l-135.721-78.359H241
			V468.699z M178.583,211.33h154.835L256,345.918L178.583,211.33z M271,468.699v-78.359h135.721L271,468.699z M282.315,360.34
			l77.062-133.967l77.345,133.967H282.315z M447.703,319.358l-67.86-117.537l67.86-39.179V319.358z"/>
	</g>
</g>
<g>
</g>
<g>
</g>
<g>
</g>
<g>
</g>
<g>
</g>
<g>
</g>
<g>
</g>
<g>
</g>
<g>
</g>
<g>
</g>
<g>
</g>
<g>
</g>
<g>
</g>
<g>
</g>
<g>
</g>
</svg>
