<?xml version="1.0" encoding="iso-8859-1"?>
<!-- Generator: Adobe Illustrator 19.0.0, SVG Export Plug-In . SVG Version: 6.00 Build 0)  -->
<svg version="1.1" id="Capa_1" xmlns="http://www.w3.org/2000/svg" xmlns:xlink="http://www.w3.org/1999/xlink" x="0px" y="0px"
	 viewBox="0 0 512 512" style="enable-background:new 0 0 512 512;" xml:space="preserve">
<g>
	<g>
		<polygon style="fill:#0cbf0c;" points="371.999,215.914 282.36,371.747 461.97,371.747 		"/>
	</g>
</g>
<g>
	<g>
		<polygon style="fill:#0cbf0c;" points="281.981,0 377.465,165.382 472.95,110.253 		"/>
	</g>
</g>
<g>
	<g>
		<polygon style="fill:#0cbf0c;" points="392.465,191.362 487.95,356.746 487.95,136.234 		"/>
	</g>
</g>
<g>
	<g>
		<polygon style="fill:#0cbf0c;" points="39.05,110.253 134.535,165.382 230.019,0 		"/>
	</g>
</g>
<g>
	<g>
		<polygon style="fill:#0cbf0c;" points="50.031,401.747 241,512 241,401.747 		"/>
	</g>
</g>
<g>
	<g>
		<polygon style="fill:#0cbf0c;" points="271,401.747 271,512 461.969,401.747 		"/>
	</g>
</g>
<g>
	<g>
		<polygon style="fill:#0cbf0c;" points="165.958,200.872 256,357.407 346.042,200.872 		"/>
	</g>
</g>
<g>
	<g>
		<polygon style="fill:#0cbf0c;" points="140.001,215.914 50.03,371.747 229.64,371.747 		"/>
	</g>
</g>
<g>
	<g>
		<polygon style="fill:#0cbf0c;" points="256,14.997 166.006,170.872 345.994,170.872 		"/>
	</g>
</g>
<g>
	<g>
		<polygon style="fill:#0cbf0c;" points="24.05,136.234 24.05,356.746 119.535,191.362 		"/>
	</g>
</g>
<g>
</g>
<g>
</g>
<g>
</g>
<g>
</g>
<g>
</g>
<g>
</g>
<g>
</g>
<g>
</g>
<g>
</g>
<g>
</g>
<g>
</g>
<g>
</g>
<g>
</g>
<g>
</g>
<g>
</g>
</svg>
